<?xml version="1.0" encoding="utf-8"?>
<!-- Generator: Adobe Illustrator 21.1.0, SVG Export Plug-In . SVG Version: 6.00 Build 0)  -->
<svg version="1.2" width="34" height="34" baseProfile="tiny" id="Layer_1" xmlns="http://www.w3.org/2000/svg" xmlns:xlink="http://www.w3.org/1999/xlink"
	 x="0px" y="0px" viewBox="0 0 19.27 18.274" xml:space="preserve">
<g>
	<path fill="#FFFFFF" d="M14.226,17.978c-0.195,0.103-0.398,0.201-0.606,0.295l-8.146,0C2.237,16.73,0,13.427,0,9.602
		C0,4.299,4.299,0,9.603,0c5.301,0,9.6,4.299,9.6,9.602c0,2.284-0.726,4.293-2.058,5.941l-2.356-2.112
		c0.757-1.056,1.259-2.431,1.259-3.829c0-3.562-2.886-6.447-6.445-6.447c-3.562,0-6.45,2.885-6.45,6.447
		c0,3.562,2.888,6.449,6.45,6.449c1.08,0,2.098-0.268,2.993-0.737L14.226,17.978z"/>
	<polygon fill="#FFFFFF" points="12.869,12.455 19.27,18.272 15.383,18.273 12.008,13.224 	"/>
</g>
</svg>
