<?xml version="1.0" encoding="utf-8"?>
<!-- Generator: Adobe Illustrator 21.1.0, SVG Export Plug-In . SVG Version: 6.00 Build 0)  -->
<svg version="1.2"  width="180" height="30" baseProfile="tiny" id="Layer_1" xmlns="http://www.w3.org/2000/svg" xmlns:xlink="http://www.w3.org/1999/xlink"
	 x="0px" y="0px" viewBox="0 0 180 38.333" xml:space="preserve">
<g width="200">
	<g width="140">
		<path fill="#FFFFFF" d="M16.309,22.697l-2.07-3.797h-8.86c-0.973,0-1.801-0.101-2.484-0.306c-0.679-0.203-1.238-0.486-1.666-0.852
			c-0.43-0.364-0.744-0.798-0.939-1.303C0.097,15.939,0,15.378,0,14.759v-8.86c0-0.617,0.097-1.176,0.29-1.68
			c0.195-0.502,0.508-0.936,0.939-1.302c0.428-0.366,0.987-0.647,1.666-0.852c0.683-0.201,1.512-0.302,2.484-0.302h11.322
			c0.971,0,1.801,0.1,2.482,0.302c0.679,0.205,1.236,0.486,1.668,0.852c0.428,0.366,0.74,0.8,0.937,1.302
			c0.193,0.505,0.291,1.063,0.291,1.68v8.86c0,1.138-0.348,2.076-1.035,2.814c-0.692,0.738-1.845,1.17-3.469,1.302l2.191,3.821
			H16.309z M18.84,5.875c0-1.053-0.712-1.584-2.139-1.584H5.379c-1.427,0-2.143,0.531-2.143,1.584v8.91
			c0,1.055,0.716,1.582,2.143,1.582h11.322c1.427,0,2.139-0.527,2.139-1.582V5.875z"/>
		<path fill="#FFFFFF" d="M30.427,18.9c-0.973,0-1.801-0.101-2.482-0.306c-0.681-0.203-1.238-0.486-1.668-0.852
			c-0.428-0.364-0.742-0.798-0.937-1.303c-0.195-0.5-0.291-1.061-0.291-1.68V1.763h3.236v13.023c0,1.055,0.716,1.582,2.143,1.582
			h10.641c1.425,0,2.138-0.527,2.138-1.582V1.763h3.24v12.996c0,0.619-0.06,1.18-0.183,1.68c-0.119,0.505-0.358,0.939-0.708,1.303
			c-0.348,0.366-0.826,0.649-1.435,0.852c-0.609,0.205-1.399,0.306-2.372,0.306H30.427z"/>
		<path fill="#FFFFFF" d="M68.549,18.9L59.713,5.095L50.732,18.9H47.13L58.521,1.763h2.36L72.203,18.9H68.549z"/>
		<path fill="#FFFFFF" d="M77.292,18.9v-6.963L66.285,1.763h4.141l8.472,7.839l8.468-7.839h4.092l-10.93,10.174V18.9H77.292z"/>
		<path fill="#FFFFFF" d="M97.207,18.9c-0.977,0-1.803-0.101-2.484-0.306c-0.683-0.203-1.238-0.486-1.666-0.852
			c-0.432-0.364-0.746-0.798-0.939-1.303c-0.197-0.5-0.294-1.061-0.294-1.68v-8.86c0-0.617,0.097-1.176,0.294-1.68
			c0.193-0.502,0.507-0.936,0.939-1.302c0.428-0.366,0.983-0.647,1.666-0.852c0.681-0.201,1.508-0.302,2.484-0.302h11.316
			c0.975,0,1.803,0.1,2.484,0.302c0.679,0.205,1.236,0.486,1.668,0.852c0.43,0.366,0.74,0.8,0.937,1.302
			c0.193,0.505,0.291,1.063,0.291,1.68v8.86c0,0.619-0.099,1.18-0.291,1.68c-0.197,0.505-0.507,0.939-0.937,1.303
			c-0.432,0.366-0.989,0.649-1.668,0.852c-0.681,0.205-1.51,0.306-2.484,0.306H97.207z M110.668,5.875
			c0-1.053-0.716-1.584-2.145-1.584H97.207c-1.429,0-2.147,0.531-2.147,1.584v8.91c0,1.055,0.717,1.582,2.147,1.582h11.316
			c1.429,0,2.145-0.527,2.145-1.582V5.875z"/>
	</g>
	<g width="140">
		<path fill="#FFFFFF" d="M0.165,29.786c0-0.253,0.046-0.464,0.137-0.633c0.097-0.171,0.217-0.305,0.372-0.404
			c0.155-0.1,0.328-0.173,0.525-0.213c0.195-0.044,0.398-0.064,0.607-0.064c0.332,0,0.599,0.02,0.808,0.058
			c0.209,0.038,0.376,0.122,0.51,0.259c0.137,0.133,0.245,0.336,0.318,0.607c0.08,0.269,0.157,0.635,0.233,1.097l0.623,3.819
			c0.008,0.03,0.016,0.08,0.028,0.149c0.012,0.068,0.028,0.141,0.048,0.209c0.02,0.068,0.04,0.13,0.058,0.185
			c0.018,0.056,0.036,0.08,0.05,0.08c0.016,0,0.036-0.024,0.058-0.08c0.022-0.054,0.042-0.116,0.056-0.185
			c0.018-0.068,0.034-0.137,0.046-0.201c0.016-0.066,0.024-0.105,0.024-0.123l0.599-3.901c0.072-0.446,0.145-0.802,0.227-1.069
			c0.078-0.265,0.187-0.462,0.324-0.595c0.135-0.129,0.31-0.213,0.527-0.251c0.213-0.038,0.49-0.058,0.828-0.058
			c0.487,0,0.881,0.097,1.188,0.29c0.31,0.189,0.464,0.523,0.464,0.993v6.878c0,0.076-0.036,0.116-0.117,0.116H7.264
			c-0.074,0-0.116-0.04-0.116-0.116V30.34c0-0.016-0.002-0.048-0.01-0.096c-0.006-0.052-0.032-0.076-0.066-0.076
			c-0.044,0-0.068,0.012-0.09,0.04c-0.016,0.028-0.034,0.056-0.054,0.089c-0.004,0.014-0.012,0.048-0.024,0.1
			c-0.012,0.056-0.024,0.113-0.036,0.175c-0.012,0.06-0.024,0.125-0.034,0.187c-0.014,0.06-0.022,0.105-0.03,0.137
			c-0.044,0.193-0.092,0.394-0.133,0.605c-0.04,0.211-0.102,0.493-0.179,0.842c-0.076,0.35-0.171,0.798-0.281,1.341
			c-0.111,0.545-0.259,1.236-0.444,2.082c-0.024,0.125-0.062,0.243-0.119,0.36c-0.05,0.115-0.127,0.217-0.223,0.31
			C5.326,36.527,5.2,36.604,5.037,36.66c-0.163,0.058-0.366,0.088-0.613,0.088c-0.221,0-0.406-0.026-0.547-0.08
			c-0.143-0.054-0.263-0.123-0.352-0.201c-0.092-0.082-0.163-0.173-0.209-0.273c-0.044-0.099-0.08-0.197-0.105-0.289l-1.154-5.495
			c-0.006-0.016-0.022-0.056-0.04-0.13c-0.02-0.075-0.044-0.115-0.074-0.123h-0.06c-0.03,0-0.042,0.028-0.042,0.08v6.396
			c0,0.076-0.04,0.116-0.121,0.116H0.282c-0.08,0-0.117-0.04-0.117-0.116V29.786z"/>
		<path fill="#FFFFFF" d="M9.712,32.602c0-0.452,0.004-0.842,0.012-1.176c0.008-0.33,0.028-0.603,0.07-0.808
			c0.058-0.302,0.127-0.569,0.195-0.808c0.07-0.241,0.161-0.434,0.277-0.589c0.153-0.199,0.348-0.376,0.579-0.525
			c0.227-0.151,0.474-0.257,0.736-0.318c0.185-0.04,0.43-0.06,0.73-0.068c0.299-0.01,0.655-0.012,1.071-0.012
			c0.418,0,0.776,0.002,1.073,0.012c0.302,0.008,0.545,0.028,0.732,0.068c0.257,0.06,0.506,0.167,0.736,0.318
			c0.229,0.149,0.422,0.326,0.577,0.525c0.116,0.155,0.209,0.348,0.279,0.589c0.068,0.239,0.135,0.507,0.195,0.808
			c0.038,0.205,0.062,0.478,0.07,0.808c0.008,0.334,0.012,0.724,0.012,1.176v0.07c0,0.454-0.004,0.848-0.012,1.178
			c-0.008,0.33-0.032,0.599-0.07,0.808c-0.06,0.302-0.127,0.571-0.195,0.808c-0.07,0.237-0.163,0.434-0.279,0.591
			c-0.155,0.197-0.348,0.374-0.577,0.523c-0.229,0.151-0.478,0.257-0.736,0.318c-0.187,0.038-0.43,0.062-0.732,0.07
			c-0.297,0.006-0.655,0.01-1.073,0.01c-0.416,0-0.772-0.004-1.071-0.01c-0.299-0.008-0.545-0.032-0.73-0.07
			c-0.261-0.06-0.509-0.167-0.736-0.318c-0.231-0.149-0.426-0.326-0.579-0.523c-0.116-0.157-0.207-0.354-0.277-0.591
			c-0.068-0.237-0.137-0.507-0.195-0.808c-0.042-0.209-0.062-0.478-0.07-0.808c-0.008-0.33-0.012-0.723-0.012-1.178V32.602z
			 M12.703,29.906c-0.217,0.014-0.402,0.038-0.555,0.076c-0.273,0.068-0.472,0.205-0.587,0.41c-0.116,0.205-0.173,0.511-0.173,0.917
			v2.657c0,0.406,0.056,0.712,0.173,0.919c0.115,0.203,0.314,0.34,0.587,0.408c0.153,0.038,0.338,0.064,0.555,0.076
			c0.217,0.008,0.442,0.016,0.679,0.016c0.239,0,0.466-0.008,0.683-0.016c0.213-0.012,0.4-0.038,0.553-0.076
			c0.275-0.068,0.472-0.205,0.587-0.408c0.119-0.207,0.175-0.513,0.175-0.919v-2.657c0-0.406-0.056-0.712-0.175-0.917
			c-0.114-0.205-0.311-0.342-0.587-0.41c-0.153-0.038-0.34-0.062-0.553-0.076c-0.217-0.012-0.444-0.016-0.683-0.016
			C13.145,29.89,12.92,29.894,12.703,29.906z"/>
		<path fill="#FFFFFF" d="M17.943,28.584c0-0.074,0.038-0.113,0.115-0.113h4.157c0.277,0,0.531,0.044,0.768,0.139
			c0.235,0.091,0.438,0.223,0.611,0.398c0.173,0.175,0.31,0.384,0.41,0.629c0.098,0.245,0.149,0.523,0.149,0.83
			c0,0.42-0.032,0.746-0.105,0.989c-0.064,0.243-0.149,0.424-0.237,0.553c-0.084,0.129-0.163,0.211-0.233,0.253
			c-0.068,0.044-0.105,0.076-0.105,0.099c0,0.038,0.058,0.119,0.177,0.241c0.121,0.125,0.253,0.267,0.398,0.428
			c0.054,0.07,0.101,0.151,0.145,0.243c0.042,0.094,0.08,0.185,0.111,0.283c0.03,0.097,0.052,0.193,0.064,0.29
			c0.01,0.094,0.018,0.177,0.018,0.247c0,0.368-0.036,0.714-0.105,1.039c-0.07,0.324-0.189,0.603-0.366,0.842
			c-0.173,0.239-0.4,0.428-0.687,0.565c-0.283,0.141-0.645,0.209-1.083,0.209h-4.086c-0.076,0-0.115-0.04-0.115-0.116V28.584z
			 M19.618,31.667c0,0.076,0.036,0.116,0.113,0.116h1.998c0.307,0,0.526-0.068,0.659-0.201c0.131-0.137,0.195-0.378,0.195-0.734
			c0-0.332-0.086-0.561-0.251-0.687c-0.173-0.127-0.374-0.191-0.603-0.191H19.73c-0.076,0-0.113,0.04-0.113,0.116V31.667z
			 M19.618,35.132c0,0.076,0.036,0.114,0.113,0.114h2.438c0.13,0,0.239-0.034,0.324-0.104c0.08-0.069,0.153-0.155,0.205-0.257
			c0.056-0.107,0.092-0.215,0.113-0.33c0.016-0.115,0.028-0.215,0.028-0.302c0-0.177-0.024-0.324-0.064-0.444
			c-0.044-0.119-0.097-0.215-0.161-0.281c-0.064-0.072-0.141-0.119-0.221-0.145c-0.08-0.028-0.155-0.04-0.223-0.04H19.73
			c-0.076,0-0.113,0.038-0.113,0.113V35.132z"/>
		<path fill="#FFFFFF" d="M25.366,28.471h1.439c0.08,0,0.119,0.038,0.119,0.113v8.048c0,0.076-0.038,0.116-0.119,0.116h-1.439
			c-0.08,0-0.117-0.04-0.117-0.116v-8.048C25.249,28.509,25.286,28.471,25.366,28.471z"/>
		<path fill="#FFFFFF" d="M33.249,35.361v1.27c0,0.076-0.036,0.116-0.112,0.116h-3.176c-0.06,0-0.121,0-0.173,0
			c-0.052,0-0.1-0.004-0.139-0.012c-0.637-0.054-1.095-0.241-1.361-0.559c-0.269-0.32-0.406-0.802-0.406-1.451v-6.143
			c0-0.074,0.038-0.113,0.115-0.113h1.445c0.076,0,0.113,0.038,0.113,0.113v6.283c0,0.253,0.153,0.38,0.45,0.38h3.132
			C33.213,35.247,33.249,35.285,33.249,35.361z"/>
		<path fill="#FFFFFF" d="M33.921,28.471h1.443c0.076,0,0.116,0.038,0.116,0.113v8.048c0,0.076-0.04,0.116-0.116,0.116h-1.443
			c-0.076,0-0.114-0.04-0.114-0.116v-8.048C33.806,28.509,33.844,28.471,33.921,28.471z"/>
		<path fill="#FFFFFF" d="M39.979,36.632c0,0.076-0.036,0.116-0.115,0.116h-1.443c-0.076,0-0.114-0.04-0.114-0.116v-6.545
			c0-0.076-0.038-0.116-0.113-0.116h-1.883c-0.078,0-0.119-0.038-0.119-0.113v-1.274c0-0.074,0.04-0.113,0.119-0.113h5.668
			c0.076,0,0.114,0.038,0.114,0.113v1.274c0,0.074-0.038,0.113-0.114,0.113h-1.881c-0.078,0-0.119,0.04-0.119,0.116V36.632z"/>
		<path fill="#FFFFFF" d="M45.532,36.748c-0.114,0-0.173-0.096-0.173-0.289v-2.573c-0.076-0.024-0.177-0.068-0.295-0.141
			c-0.121-0.068-0.219-0.173-0.306-0.324l-2.215-4.778c-0.062-0.114-0.042-0.173,0.058-0.173h1.594c0.091,0,0.157,0.044,0.193,0.139
			l1.64,3.556c0.04,0.076,0.101,0.114,0.183,0.114c0.054,0,0.09-0.01,0.111-0.028c0.022-0.018,0.044-0.05,0.074-0.086l1.582-3.534
			c0.048-0.105,0.113-0.161,0.197-0.161h1.558c0.056,0,0.089,0.016,0.101,0.05c0.008,0.036,0.008,0.072-0.006,0.111l-2.151,4.79
			c-0.105,0.151-0.211,0.255-0.31,0.324c-0.1,0.072-0.191,0.117-0.277,0.141v2.573c0,0.193-0.052,0.289-0.161,0.289H45.532z"/>
		<path fill="#FFFFFF" d="M55.946,33.307c-0.239,0-0.494-0.03-0.768-0.093c-0.273-0.062-0.523-0.181-0.744-0.358
			c-0.133-0.108-0.241-0.237-0.33-0.386c-0.089-0.153-0.161-0.31-0.221-0.486c-0.056-0.169-0.1-0.35-0.127-0.529
			c-0.026-0.183-0.038-0.36-0.038-0.539c0-0.076,0-0.149,0-0.219c0-0.068,0.006-0.137,0.022-0.205
			c0.052-0.671,0.304-1.192,0.75-1.56c0.13-0.109,0.293-0.213,0.482-0.314c0.195-0.098,0.384-0.149,0.569-0.149h3.819
			c0.078,0,0.119,0.038,0.119,0.113v1.274c0,0.074-0.04,0.113-0.119,0.113h-3.335c-0.109,0-0.209,0.048-0.294,0.145
			c-0.091,0.096-0.153,0.189-0.191,0.271c-0.038,0.076-0.062,0.155-0.07,0.231c-0.008,0.078-0.012,0.153-0.012,0.231
			c0,0.123,0.008,0.247,0.024,0.38c0.014,0.133,0.068,0.249,0.161,0.346c0.084,0.086,0.203,0.137,0.354,0.153
			c0.149,0.014,0.31,0.02,0.49,0.02h1.294c0.237,0,0.486,0.036,0.748,0.099c0.263,0.064,0.505,0.191,0.728,0.378
			c0.129,0.106,0.241,0.239,0.33,0.392c0.086,0.153,0.161,0.32,0.219,0.494c0.058,0.179,0.098,0.364,0.122,0.555
			c0.022,0.193,0.034,0.378,0.034,0.553c0,0.086,0,0.167,0,0.243c0,0.068-0.01,0.135-0.024,0.197
			c-0.062,0.699-0.307,1.238-0.738,1.616c-0.133,0.106-0.291,0.213-0.478,0.318c-0.193,0.104-0.368,0.157-0.539,0.157h-4.201
			c-0.08,0-0.119-0.04-0.119-0.116v-1.27c0-0.076,0.038-0.115,0.119-0.115h3.716c0.117,0,0.217-0.054,0.299-0.167
			c0.085-0.113,0.147-0.213,0.185-0.306c0.038-0.086,0.062-0.165,0.07-0.245c0.006-0.076,0.008-0.157,0.008-0.241
			c0-0.123-0.006-0.251-0.018-0.386c-0.02-0.135-0.072-0.255-0.163-0.366c-0.078-0.083-0.187-0.143-0.328-0.177
			c-0.147-0.036-0.31-0.052-0.504-0.052H55.946z"/>
		<path fill="#FFFFFF" d="M60.76,32.602c0-0.452,0.002-0.842,0.012-1.176c0.006-0.33,0.03-0.603,0.066-0.808
			c0.064-0.302,0.131-0.569,0.199-0.808c0.07-0.241,0.163-0.434,0.275-0.589c0.157-0.199,0.348-0.376,0.579-0.525
			c0.229-0.151,0.478-0.257,0.738-0.318c0.187-0.04,0.428-0.06,0.726-0.068c0.302-0.01,0.659-0.012,1.073-0.012
			c0.418,0,0.776,0.002,1.077,0.012c0.298,0.008,0.543,0.028,0.726,0.068c0.263,0.06,0.508,0.167,0.738,0.318
			c0.233,0.149,0.426,0.326,0.579,0.525c0.117,0.155,0.205,0.348,0.277,0.589c0.066,0.239,0.135,0.507,0.197,0.808
			c0.036,0.205,0.06,0.478,0.066,0.808c0.01,0.334,0.012,0.724,0.012,1.176v0.07c0,0.454-0.002,0.848-0.012,1.178
			c-0.006,0.33-0.03,0.599-0.066,0.808c-0.062,0.302-0.131,0.571-0.197,0.808c-0.072,0.237-0.161,0.434-0.277,0.591
			c-0.153,0.197-0.346,0.374-0.579,0.523c-0.229,0.151-0.474,0.257-0.738,0.318c-0.183,0.038-0.428,0.062-0.726,0.07
			c-0.302,0.006-0.659,0.01-1.077,0.01c-0.414,0-0.772-0.004-1.073-0.01c-0.297-0.008-0.539-0.032-0.726-0.07
			c-0.259-0.06-0.509-0.167-0.738-0.318c-0.231-0.149-0.422-0.326-0.579-0.523c-0.113-0.157-0.205-0.354-0.275-0.591
			c-0.068-0.237-0.135-0.507-0.199-0.808c-0.036-0.209-0.06-0.478-0.066-0.808c-0.01-0.33-0.012-0.723-0.012-1.178V32.602z
			 M63.751,29.906c-0.215,0.014-0.4,0.038-0.557,0.076c-0.277,0.068-0.47,0.205-0.587,0.41c-0.116,0.205-0.173,0.511-0.173,0.917
			v2.657c0,0.406,0.056,0.712,0.173,0.919c0.117,0.203,0.31,0.34,0.587,0.408c0.157,0.038,0.342,0.064,0.557,0.076
			c0.213,0.008,0.44,0.016,0.677,0.016c0.241,0,0.468-0.008,0.683-0.016c0.217-0.012,0.398-0.038,0.555-0.076
			c0.277-0.068,0.474-0.205,0.587-0.408c0.117-0.207,0.173-0.513,0.173-0.919v-2.657c0-0.406-0.056-0.712-0.173-0.917
			c-0.113-0.205-0.31-0.342-0.587-0.41c-0.157-0.038-0.338-0.062-0.555-0.076c-0.215-0.012-0.442-0.016-0.683-0.016
			C64.191,29.89,63.964,29.894,63.751,29.906z"/>
		<path fill="#FFFFFF" d="M74.347,35.361v1.27c0,0.076-0.038,0.116-0.119,0.116h-3.172c-0.06,0-0.121,0-0.173,0
			c-0.056,0-0.1-0.004-0.139-0.012c-0.637-0.054-1.093-0.241-1.365-0.559c-0.269-0.32-0.402-0.802-0.402-1.451v-6.143
			c0-0.074,0.04-0.113,0.117-0.113h1.443c0.076,0,0.113,0.038,0.113,0.113v6.283c0,0.253,0.151,0.38,0.45,0.38h3.127
			C74.309,35.247,74.347,35.285,74.347,35.361z"/>
		<path fill="#FFFFFF" d="M79.575,28.471h1.445c0.074,0,0.115,0.038,0.115,0.113v5.485c0,0.277-0.014,0.521-0.046,0.734
			c-0.03,0.213-0.074,0.382-0.127,0.512c-0.048,0.123-0.115,0.251-0.205,0.388c-0.086,0.137-0.183,0.259-0.291,0.374
			c-0.115,0.116-0.251,0.217-0.404,0.295c-0.157,0.08-0.299,0.149-0.438,0.203c-0.141,0.044-0.294,0.085-0.464,0.121
			c-0.167,0.034-0.352,0.052-0.553,0.052h-1.351c-0.253,0-0.49-0.026-0.709-0.08c-0.219-0.054-0.406-0.133-0.561-0.233
			c-0.161-0.1-0.302-0.209-0.414-0.322c-0.145-0.145-0.273-0.297-0.37-0.45c-0.101-0.169-0.181-0.348-0.237-0.537
			c-0.058-0.189-0.088-0.392-0.088-0.605v-5.938c0-0.074,0.04-0.113,0.119-0.113h1.443c0.077,0,0.115,0.038,0.115,0.113v5.634
			c0,0.094,0.016,0.201,0.048,0.32c0.036,0.121,0.089,0.231,0.157,0.336c0.072,0.102,0.157,0.191,0.261,0.263
			c0.105,0.075,0.225,0.111,0.366,0.111h1.21c0.129,0,0.251-0.036,0.36-0.111c0.107-0.072,0.195-0.161,0.271-0.263
			c0.072-0.105,0.129-0.215,0.173-0.336c0.04-0.119,0.064-0.229,0.064-0.33v-5.624C79.463,28.509,79.499,28.471,79.575,28.471z"/>
		<path fill="#FFFFFF" d="M85.589,36.632c0,0.076-0.04,0.116-0.116,0.116h-1.443c-0.076,0-0.113-0.04-0.113-0.116v-6.545
			c0-0.076-0.04-0.116-0.114-0.116h-1.883c-0.078,0-0.117-0.038-0.117-0.113v-1.274c0-0.074,0.038-0.113,0.117-0.113h5.668
			c0.076,0,0.115,0.038,0.115,0.113v1.274c0,0.074-0.038,0.113-0.115,0.113h-1.881c-0.078,0-0.117,0.04-0.117,0.116V36.632z"/>
		<path fill="#FFFFFF" d="M88.512,28.471h1.443c0.076,0,0.115,0.038,0.115,0.113v8.048c0,0.076-0.038,0.116-0.115,0.116h-1.443
			c-0.077,0-0.117-0.04-0.117-0.116v-8.048C88.395,28.509,88.435,28.471,88.512,28.471z"/>
		<path fill="#FFFFFF" d="M90.98,32.602c0-0.452,0.004-0.842,0.012-1.176c0.008-0.33,0.032-0.603,0.07-0.808
			c0.062-0.302,0.127-0.569,0.195-0.808c0.068-0.241,0.161-0.434,0.28-0.589c0.151-0.199,0.346-0.376,0.577-0.525
			c0.229-0.151,0.476-0.257,0.736-0.318c0.185-0.04,0.43-0.06,0.73-0.068c0.299-0.01,0.655-0.012,1.071-0.012
			c0.418,0,0.776,0.002,1.073,0.012c0.301,0.008,0.545,0.028,0.731,0.068c0.261,0.06,0.507,0.167,0.736,0.318
			c0.231,0.149,0.426,0.326,0.579,0.525c0.116,0.155,0.207,0.348,0.277,0.589c0.068,0.239,0.137,0.507,0.193,0.808
			c0.042,0.205,0.064,0.478,0.072,0.808c0.008,0.334,0.012,0.724,0.012,1.176v0.07c0,0.454-0.004,0.848-0.012,1.178
			c-0.008,0.33-0.03,0.599-0.072,0.808c-0.056,0.302-0.125,0.571-0.193,0.808c-0.07,0.237-0.161,0.434-0.277,0.591
			c-0.153,0.197-0.348,0.374-0.579,0.523c-0.229,0.151-0.474,0.257-0.736,0.318c-0.187,0.038-0.43,0.062-0.731,0.07
			c-0.298,0.006-0.655,0.01-1.073,0.01c-0.416,0-0.772-0.004-1.071-0.01c-0.299-0.008-0.545-0.032-0.73-0.07
			c-0.259-0.06-0.507-0.167-0.736-0.318c-0.231-0.149-0.426-0.326-0.577-0.523c-0.119-0.157-0.211-0.354-0.28-0.591
			c-0.068-0.237-0.133-0.507-0.195-0.808c-0.038-0.209-0.062-0.478-0.07-0.808c-0.008-0.33-0.012-0.723-0.012-1.178V32.602z
			 M93.971,29.906c-0.217,0.014-0.398,0.038-0.555,0.076c-0.275,0.068-0.47,0.205-0.587,0.41c-0.117,0.205-0.173,0.511-0.173,0.917
			v2.657c0,0.406,0.056,0.712,0.173,0.919c0.117,0.203,0.312,0.34,0.587,0.408c0.157,0.038,0.338,0.064,0.555,0.076
			c0.217,0.008,0.442,0.016,0.679,0.016c0.239,0,0.466-0.008,0.683-0.016c0.215-0.012,0.4-0.038,0.553-0.076
			c0.275-0.068,0.472-0.205,0.591-0.408c0.114-0.207,0.173-0.513,0.173-0.919v-2.657c0-0.406-0.058-0.712-0.173-0.917
			c-0.119-0.205-0.316-0.342-0.591-0.41c-0.153-0.038-0.338-0.062-0.553-0.076c-0.217-0.012-0.444-0.016-0.683-0.016
			C94.413,29.89,94.188,29.894,93.971,29.906z"/>
		<path fill="#FFFFFF" d="M99.201,30.168c0-0.299,0.028-0.559,0.08-0.772c0.052-0.217,0.149-0.392,0.277-0.527
			c0.129-0.137,0.306-0.235,0.527-0.302c0.217-0.064,0.494-0.097,0.822-0.097c0.488,0,0.838,0.075,1.059,0.229
			c0.217,0.155,0.366,0.366,0.442,0.633l1.548,5.706c0.024,0.075,0.06,0.117,0.116,0.117c0.054,0,0.08-0.042,0.08-0.117v-6.456
			c0-0.074,0.036-0.113,0.114-0.113h1.443c0.076,0,0.115,0.038,0.115,0.113v6.838c0,0.153-0.03,0.307-0.093,0.46
			c-0.06,0.153-0.143,0.296-0.245,0.424c-0.107,0.135-0.229,0.239-0.37,0.32c-0.141,0.082-0.295,0.122-0.458,0.122h-1.061
			c-0.092,0-0.189-0.024-0.295-0.076c-0.103-0.048-0.199-0.114-0.296-0.195c-0.088-0.082-0.173-0.173-0.239-0.271
			c-0.07-0.101-0.121-0.205-0.151-0.312l-1.556-5.739c-0.024-0.068-0.06-0.105-0.105-0.105c-0.056,0-0.084,0.036-0.084,0.105v6.476
			c0,0.076-0.04,0.116-0.113,0.116h-1.447c-0.076,0-0.113-0.04-0.113-0.116V30.168z"/>
		<path fill="#FFFFFF" d="M108.933,33.307c-0.241,0-0.499-0.03-0.768-0.093c-0.273-0.062-0.523-0.181-0.748-0.358
			c-0.129-0.108-0.237-0.237-0.328-0.386c-0.086-0.153-0.159-0.31-0.219-0.486c-0.056-0.169-0.099-0.35-0.125-0.529
			c-0.03-0.183-0.04-0.36-0.04-0.539c0-0.076,0-0.149,0-0.219c0-0.068,0.008-0.137,0.022-0.205c0.052-0.671,0.304-1.192,0.75-1.56
			c0.129-0.109,0.294-0.213,0.485-0.314c0.191-0.098,0.382-0.149,0.565-0.149h3.823c0.076,0,0.113,0.038,0.113,0.113v1.274
			c0,0.074-0.036,0.113-0.113,0.113h-3.337c-0.107,0-0.207,0.048-0.296,0.145c-0.086,0.096-0.153,0.189-0.191,0.271
			c-0.04,0.076-0.06,0.155-0.068,0.231c-0.008,0.078-0.012,0.153-0.012,0.231c0,0.123,0.008,0.247,0.024,0.38
			c0.016,0.133,0.068,0.249,0.161,0.346c0.086,0.086,0.205,0.137,0.352,0.153c0.151,0.014,0.314,0.02,0.49,0.02h1.293
			c0.239,0,0.49,0.036,0.752,0.099c0.261,0.064,0.504,0.191,0.728,0.378c0.129,0.106,0.241,0.239,0.33,0.392
			c0.088,0.153,0.161,0.32,0.221,0.494c0.056,0.179,0.097,0.364,0.121,0.555c0.02,0.193,0.034,0.378,0.034,0.553
			c0,0.086,0,0.167,0,0.243c0,0.068-0.008,0.135-0.026,0.197c-0.06,0.699-0.306,1.238-0.738,1.616
			c-0.131,0.106-0.291,0.213-0.476,0.318c-0.191,0.104-0.37,0.157-0.543,0.157h-4.201c-0.075,0-0.113-0.04-0.113-0.116v-1.27
			c0-0.076,0.038-0.115,0.113-0.115h3.718c0.116,0,0.217-0.054,0.302-0.167c0.084-0.113,0.145-0.213,0.181-0.306
			c0.044-0.086,0.064-0.165,0.072-0.245c0.008-0.076,0.012-0.157,0.012-0.241c0-0.123-0.006-0.251-0.024-0.386
			c-0.014-0.135-0.068-0.255-0.161-0.366c-0.076-0.083-0.185-0.143-0.33-0.177c-0.141-0.036-0.31-0.052-0.498-0.052H108.933z"/>
	</g>
</g>
</svg>
