<svg id="Capa_1" enable-background="new 0 0 512 512" height="512" viewBox="0 0 512 512" width="512" xmlns="http://www.w3.org/2000/svg"><path d="m314.828 304.047c24.729-18.139 40.809-47.408 40.809-80.367v-82.567c15.759-17.269 25.379-40.239 25.379-65.398v-60.697c0-11.228-11.943-18.501-21.919-13.31-40.398 20.981-47.53 26.629-64.838 26.629h-97.437c-.59 0-1.17.03-1.74.1-35.545 1.767-64.098 31.084-64.098 67.388v29.579c0 18.199 10.3 34.039 25.379 41.999v56.278c0 32.959 16.079 62.228 40.809 80.367-61.928 23.739-106.006 83.817-106.006 153.994v38.959c0 8.28 6.71 14.999 14.999 14.999h299.669c8.29 0 14.999-6.72 14.999-14.999v-38.959c.001-70.178-44.077-130.255-106.005-153.995zm-43.609 46.859c0 8.39-6.83 15.219-15.219 15.219s-15.219-6.83-15.219-15.219c0-16.651 0-11.896 0-28.739 10.065 1.544 20.359 1.547 30.439 0-.001 16.868-.001 12.054-.001 28.739zm-110.236-255.081c0-18.989 14.042-36.445 36.969-37.489h96.307c24.109 0 38.048-8.918 56.758-18.629v36.009c0 23.298-11.965 44.173-30.589 56.298-10.53 6.86-23.089 10.85-36.559 10.85-11.041 0-93.708 0-105.426 0-9.63 0-17.459-7.83-17.459-17.459-.001-19.612-.001-17.168-.001-29.58zm25.379 127.855v-50.818h97.507c14.949 0 29.109-3.39 41.769-9.45v60.268c0 21.149-9.48 40.139-24.419 52.928-26.374 22.579-64.809 21.941-90.437 0-14.94-12.789-24.42-31.778-24.42-52.928zm102.867 257.821v-25.939h41.678v25.939zm101.606.5h-29.929v-41.439c0-8.29-6.72-14.999-14.999-14.999h-71.677c-8.28 0-14.999 6.71-14.999 14.999v41.439h-138.066v-23.959c0-58.488 37.439-108.406 89.617-127.035v19.899c0 24.929 20.289 45.218 45.218 45.218s45.218-20.289 45.218-45.218v-19.899c52.178 18.629 89.617 68.548 89.617 127.035z"/></svg>